<?xml version="1.0" encoding="utf-8"?>
<!-- Generator: Adobe Illustrator 28.1.0, SVG Export Plug-In . SVG Version: 6.00 Build 0)  -->
<svg version="1.1" id="Layer_2_00000145047996882494719570000013912268925648096436_"
	 xmlns="http://www.w3.org/2000/svg" xmlns:xlink="http://www.w3.org/1999/xlink" x="0px" y="0px" viewBox="0 0 393.9 88"
	 style="enable-background:new 0 0 393.9 88;" xml:space="preserve">
<style type="text/css">
	.st0{enable-background:new    ;}
	.st1{fill:#DBA287;}
</style>
<g id="Layer_1-2">
	<g class="st0">
		<path class="st1" d="M25.2,50.9c-3.3,0-6.3-0.5-9.1-1.6c-2.8-1-5.2-2.5-7.3-4.5c-2-1.9-3.6-4.2-4.8-6.8c-1.1-2.6-1.7-5.5-1.7-8.6
			c0-3.1,0.6-6,1.7-8.6c1.1-2.6,2.8-4.9,4.8-6.8c2.1-1.9,4.5-3.4,7.3-4.5c2.8-1,5.8-1.6,9.1-1.6c3.7,0,7,0.6,9.9,1.9
			c3,1.2,5.4,3.1,7.4,5.5l-6.3,5.7c-1.4-1.6-3.1-2.8-4.8-3.6c-1.8-0.8-3.7-1.2-5.8-1.2c-2,0-3.8,0.3-5.4,0.9
			c-1.6,0.6-3.1,1.5-4.3,2.7s-2.1,2.6-2.8,4.2c-0.7,1.6-1,3.4-1,5.4c0,2,0.3,3.8,1,5.4c0.7,1.6,1.6,3,2.8,4.2s2.6,2.1,4.3,2.7
			c1.6,0.6,3.5,0.9,5.4,0.9c2.1,0,4-0.4,5.8-1.2c1.8-0.8,3.4-2,4.8-3.7l6.3,5.7c-2,2.4-4.5,4.2-7.4,5.5
			C32.2,50.3,28.9,50.9,25.2,50.9z"/>
		<path class="st1" d="M71.8,50.9c-3.3,0-6.4-0.5-9.3-1.6c-2.8-1.1-5.3-2.6-7.4-4.5c-2.1-1.9-3.7-4.2-4.8-6.8
			c-1.1-2.6-1.7-5.4-1.7-8.5s0.6-5.9,1.7-8.5c1.1-2.6,2.8-4.9,4.9-6.8c2.1-1.9,4.5-3.4,7.4-4.5c2.8-1.1,5.9-1.6,9.2-1.6
			c3.3,0,6.4,0.5,9.2,1.6c2.8,1.1,5.2,2.6,7.3,4.5c2.1,1.9,3.7,4.2,4.9,6.8c1.2,2.6,1.7,5.4,1.7,8.5c0,3.1-0.6,5.9-1.7,8.5
			c-1.2,2.6-2.8,4.9-4.9,6.8c-2.1,1.9-4.5,3.4-7.3,4.5C78.1,50.4,75.1,50.9,71.8,50.9z M71.7,42.8c1.9,0,3.6-0.3,5.2-0.9
			c1.6-0.6,3-1.5,4.2-2.7c1.2-1.2,2.1-2.6,2.8-4.2c0.7-1.6,1-3.4,1-5.4c0-2-0.3-3.8-1-5.4c-0.7-1.6-1.6-3-2.8-4.2
			c-1.2-1.2-2.6-2.1-4.2-2.7c-1.6-0.6-3.4-0.9-5.2-0.9c-1.9,0-3.6,0.3-5.2,0.9c-1.6,0.6-3,1.5-4.2,2.7s-2.1,2.6-2.8,4.2
			c-0.7,1.6-1,3.4-1,5.4c0,1.9,0.3,3.7,1,5.3c0.7,1.6,1.6,3,2.8,4.2c1.2,1.2,2.6,2.1,4.2,2.7C68.1,42.5,69.8,42.8,71.7,42.8z"/>
		<path class="st1" d="M105.2,50.2V8.9h18.3c3.8,0,7,0.6,9.8,1.8c2.7,1.2,4.8,2.9,6.3,5.2c1.5,2.2,2.2,4.9,2.2,8
			c0,3.1-0.7,5.7-2.2,7.9c-1.5,2.2-3.6,3.9-6.3,5.1c-2.7,1.2-6,1.8-9.8,1.8h-12.8l4.3-4.2v15.7H105.2z M115,35.6l-4.3-4.5h12.3
			c3,0,5.3-0.6,6.8-1.9c1.5-1.3,2.2-3,2.2-5.3c0-2.3-0.7-4.1-2.2-5.3c-1.5-1.3-3.7-1.9-6.8-1.9h-12.3l4.3-4.6V35.6z M132,50.2
			l-10.5-15h10.4l10.7,15H132z"/>
		<path class="st1" d="M152.5,50.2V8.9h8.1l24.9,29.8h-3.9V8.9h9.6v41.4h-8l-25-29.8h3.9v29.8H152.5z"/>
		<path class="st1" d="M214.1,50.2L200.3,8.9h10.1l12,36.6h-5.1l12.5-36.6h9L251,45.5h-4.9l12.3-36.6h9.3L254,50.2h-10.5l-10.7-32.1
			h2.8l-11,32.1H214.1z"/>
		<path class="st1" d="M285.9,42.6h23v7.7h-32.7V8.9h31.9v7.7h-22.2V42.6z M285.2,25.5h20.3V33h-20.3V25.5z"/>
		<path class="st1" d="M319.7,50.2V8.9h9.8v33.6h21.2v7.8H319.7z"/>
		<path class="st1" d="M359.1,50.2V8.9h9.8v33.6H390v7.8H359.1z"/>
	</g>
	<g class="st0">
		<path class="st1" d="M85.8,81.8V65.1h7.3c1.9,0,3.4,0.4,4.4,1.1c1,0.7,1.6,1.8,1.6,3.2c0,0.9-0.2,1.7-0.6,2.3
			c-0.4,0.6-1,1.1-1.7,1.4s-1.5,0.5-2.4,0.5l0.4-0.6c1.1,0,2,0.2,2.8,0.5c0.8,0.3,1.4,0.8,1.8,1.5s0.7,1.4,0.7,2.4
			c0,1.4-0.5,2.5-1.6,3.3c-1.1,0.8-2.7,1.2-4.8,1.2H85.8z M87.6,80.3h6c1.5,0,2.6-0.2,3.4-0.8c0.8-0.5,1.2-1.3,1.2-2.4
			c0-1.1-0.4-1.9-1.2-2.4c-0.8-0.5-1.9-0.8-3.4-0.8h-6.2v-1.5h5.6c1.4,0,2.4-0.3,3.2-0.8c0.8-0.5,1.1-1.3,1.1-2.3
			c0-1-0.4-1.8-1.1-2.3s-1.8-0.8-3.2-0.8h-5.4V80.3z"/>
		<path class="st1" d="M109.1,81.8v-6.2l0.4,1.1l-7.2-11.6h1.9l6.3,10.2h-1l6.3-10.2h1.8l-7.2,11.6l0.4-1.1v6.2H109.1z"/>
		<path class="st1" d="M131,80.3h10.2v1.5h-12V65.1h11.7v1.5H131V80.3z M130.8,72.6h9v1.5h-9V72.6z"/>
		<path class="st1" d="M146.7,81.8V65.1h1.8v15.1h9.5v1.5H146.7z"/>
		<path class="st1" d="M162.2,81.8V65.1h1.8v16.7H162.2z"/>
		<path class="st1" d="M174,81.8V66.6h-6v-1.5h13.7v1.5h-6v15.1H174z"/>
		<path class="st1" d="M187.7,80.3h10.2v1.5h-12V65.1h11.7v1.5h-9.9V80.3z M187.5,72.6h9v1.5h-9V72.6z"/>
		<path class="st1" d="M210.9,81.8V65.1h1.5l7.8,13h-0.8l7.7-13h1.5v16.7h-1.7v-14h0.4l-7.1,11.9h-0.8l-7.1-11.9h0.5v14H210.9z"/>
		<path class="st1" d="M232.6,81.8l7.8-16.7h1.8l7.8,16.7H248l-7.1-15.6h0.7l-7.1,15.6H232.6z M235.7,77.3l0.5-1.4h9.9l0.5,1.4
			H235.7z"/>
		<path class="st1" d="M254,81.8V65.1h1.5l11.7,14.5h-0.8V65.1h1.8v16.7h-1.5L255,67.3h0.8v14.5H254z"/>
		<path class="st1" d="M282.4,81.9c-1.3,0-2.5-0.2-3.6-0.6c-1.1-0.4-2-1-2.8-1.8c-0.8-0.8-1.4-1.7-1.9-2.7c-0.4-1-0.7-2.1-0.7-3.4
			c0-1.2,0.2-2.3,0.7-3.4c0.4-1,1.1-1.9,1.9-2.7c0.8-0.8,1.7-1.4,2.8-1.8s2.3-0.6,3.6-0.6c1.3,0,2.5,0.2,3.5,0.6
			c1.1,0.4,2,1,2.8,1.8c0.8,0.8,1.4,1.7,1.9,2.7c0.4,1,0.7,2.2,0.7,3.4c0,1.2-0.2,2.3-0.7,3.4c-0.4,1-1.1,1.9-1.9,2.7
			c-0.8,0.8-1.7,1.4-2.8,1.8C284.8,81.7,283.6,81.9,282.4,81.9z M282.4,80.4c1,0,2-0.2,2.8-0.5c0.9-0.3,1.6-0.8,2.3-1.5
			c0.6-0.6,1.1-1.4,1.5-2.2c0.4-0.8,0.5-1.8,0.5-2.8s-0.2-1.9-0.5-2.8c-0.4-0.8-0.9-1.6-1.5-2.2c-0.6-0.6-1.4-1.1-2.3-1.5
			c-0.9-0.3-1.8-0.5-2.8-0.5c-1,0-2,0.2-2.8,0.5s-1.6,0.8-2.3,1.5c-0.6,0.6-1.1,1.4-1.5,2.2c-0.4,0.8-0.5,1.8-0.5,2.8
			c0,1,0.2,1.9,0.5,2.7c0.4,0.8,0.9,1.6,1.5,2.2c0.6,0.6,1.4,1.1,2.3,1.5S281.3,80.4,282.4,80.4z"/>
		<path class="st1" d="M296.5,81.8V65.1h6.4c1.4,0,2.7,0.2,3.7,0.7c1,0.5,1.8,1.1,2.4,2c0.6,0.8,0.8,1.9,0.8,3.1
			c0,1.2-0.3,2.2-0.8,3c-0.6,0.8-1.4,1.5-2.4,2c-1,0.5-2.3,0.7-3.7,0.7h-5.4l0.8-0.8v6.1H296.5z M298.3,75.8l-0.8-0.8h5.3
			c1.7,0,3-0.4,3.9-1.1c0.9-0.7,1.3-1.8,1.3-3.1c0-1.3-0.4-2.4-1.3-3.1c-0.9-0.7-2.2-1.1-3.9-1.1h-5.3l0.8-0.8V75.8z M308.1,81.8
			l-4.4-6h1.9l4.4,6H308.1z"/>
	</g>
</g>
</svg>
